<svg width="28" height="34" viewBox="0 0 28 34" fill="none" xmlns="http://www.w3.org/2000/svg">
<g clip-path="url(#clip0_168_456)">
<path d="M19.2502 4.25C17.2202 4.25 15.2718 5.3975 14.0002 7.21083C12.7285 5.3975 10.7802 4.25 8.75016 4.25C5.15683 4.25 2.3335 7.67833 2.3335 12.0417C2.3335 17.3967 6.30016 21.76 12.3085 28.39L14.0002 30.2458L15.6918 28.3758C21.7002 21.76 25.6668 17.3967 25.6668 12.0417C25.6668 7.67833 22.8435 4.25 19.2502 4.25ZM14.1168 26.2792L14.0002 26.4208L13.8835 26.2792C8.33016 20.1733 4.66683 16.1358 4.66683 12.0417C4.66683 9.20833 6.41683 7.08333 8.75016 7.08333C10.5468 7.08333 12.2968 8.48583 12.9152 10.4267H15.0968C15.7035 8.48583 17.4535 7.08333 19.2502 7.08333C21.5835 7.08333 23.3335 9.20833 23.3335 12.0417C23.3335 16.1358 19.6702 20.1733 14.1168 26.2792Z" fill="#434343"/>
</g>
<defs>
<clipPath id="clip0_168_456">
<rect width="28" height="34" fill="white"/>
</clipPath>
</defs>
</svg>
