<svg width="28" height="34" viewBox="0 0 28 34" fill="none" xmlns="http://www.w3.org/2000/svg">
<g clip-path="url(#clip0_168_456)">
<path d="M19.25 4.25C17.22 4.25 15.2717 5.3975 14 7.21083C12.7284 5.3975 10.78 4.25 8.75004 4.25C5.15671 4.25 2.33337 7.67833 2.33337 12.0417C2.33337 17.3967 6.30004 21.76 12.3084 28.39L14 30.2458L15.6917 28.3758C21.7 21.76 25.6667 17.3967 25.6667 12.0417C25.6667 7.67833 22.8434 4.25 19.25 4.25ZM14.1167 26.2792L14 26.4208L13.8834 26.2792C8.33004 20.1733 4.66671 16.1358 4.66671 12.0417C4.66671 9.20833 6.41671 7.08333 8.75004 7.08333C10.5467 7.08333 12.2967 8.48583 12.915 10.4267H15.0967C15.7034 8.48583 17.4534 7.08333 19.25 7.08333C21.5834 7.08333 23.3334 9.20833 23.3334 12.0417C23.3334 16.1358 19.67 20.1733 14.1167 26.2792Z" fill="#434343"/>
</g>
<defs>
<clipPath id="clip0_168_456">
<rect width="28" height="34" fill="white"/>
</clipPath>
</defs>
</svg>
