<svg width="28" height="34" viewBox="0 0 28 34" fill="none" xmlns="http://www.w3.org/2000/svg">
<g clip-path="url(#clip0_168_448)">
<path d="M13.9998 8.35817C15.3532 8.35817 16.4498 9.68984 16.4498 11.3332C16.4498 12.9765 15.3532 14.3082 13.9998 14.3082C12.6465 14.3082 11.5498 12.9765 11.5498 11.3332C11.5498 9.68984 12.6465 8.35817 13.9998 8.35817ZM13.9998 21.1082C17.4648 21.1082 21.1165 23.1765 21.1165 24.0832V25.6415H6.88317V24.0832C6.88317 23.1765 10.5348 21.1082 13.9998 21.1082ZM13.9998 5.6665C11.4215 5.6665 9.33317 8.20234 9.33317 11.3332C9.33317 14.464 11.4215 16.9998 13.9998 16.9998C16.5782 16.9998 18.6665 14.464 18.6665 11.3332C18.6665 8.20234 16.5782 5.6665 13.9998 5.6665ZM13.9998 18.4165C10.8848 18.4165 4.6665 20.3148 4.6665 24.0832V28.3332H23.3332V24.0832C23.3332 20.3148 17.1148 18.4165 13.9998 18.4165Z" fill="#434141"/>
</g>
<defs>
<clipPath id="clip0_168_448">
<rect width="28" height="34" fill="white"/>
</clipPath>
</defs>
</svg>
