<svg width="28" height="34" viewBox="0 0 28 34" fill="none" xmlns="http://www.w3.org/2000/svg">
<g clip-path="url(#clip0_168_448)">
<path d="M14 8.35817C15.3533 8.35817 16.45 9.68984 16.45 11.3332C16.45 12.9765 15.3533 14.3082 14 14.3082C12.6466 14.3082 11.55 12.9765 11.55 11.3332C11.55 9.68984 12.6466 8.35817 14 8.35817ZM14 21.1082C17.465 21.1082 21.1166 23.1765 21.1166 24.0832V25.6415H6.88329V24.0832C6.88329 23.1765 10.535 21.1082 14 21.1082ZM14 5.6665C11.4216 5.6665 9.33329 8.20234 9.33329 11.3332C9.33329 14.464 11.4216 16.9998 14 16.9998C16.5783 16.9998 18.6666 14.464 18.6666 11.3332C18.6666 8.20234 16.5783 5.6665 14 5.6665ZM14 18.4165C10.885 18.4165 4.66663 20.3148 4.66663 24.0832V28.3332H23.3333V24.0832C23.3333 20.3148 17.115 18.4165 14 18.4165Z" fill="#434141"/>
</g>
<defs>
<clipPath id="clip0_168_448">
<rect width="28" height="34" fill="white"/>
</clipPath>
</defs>
</svg>
