<svg width="28" height="34" viewBox="0 0 28 34" fill="none" xmlns="http://www.w3.org/2000/svg">
<g clip-path="url(#clip0_168_448)">
<path d="M14.0001 8.35817C15.3534 8.35817 16.4501 9.68984 16.4501 11.3332C16.4501 12.9765 15.3534 14.3082 14.0001 14.3082C12.6467 14.3082 11.5501 12.9765 11.5501 11.3332C11.5501 9.68984 12.6467 8.35817 14.0001 8.35817ZM14.0001 21.1082C17.4651 21.1082 21.1167 23.1765 21.1167 24.0832V25.6415H6.88341V24.0832C6.88341 23.1765 10.5351 21.1082 14.0001 21.1082ZM14.0001 5.6665C11.4217 5.6665 9.33342 8.20234 9.33342 11.3332C9.33342 14.464 11.4217 16.9998 14.0001 16.9998C16.5784 16.9998 18.6667 14.464 18.6667 11.3332C18.6667 8.20234 16.5784 5.6665 14.0001 5.6665ZM14.0001 18.4165C10.8851 18.4165 4.66675 20.3148 4.66675 24.0832V28.3332H23.3334V24.0832C23.3334 20.3148 17.1151 18.4165 14.0001 18.4165Z" fill="#434141"/>
</g>
<defs>
<clipPath id="clip0_168_448">
<rect width="28" height="34" fill="white"/>
</clipPath>
</defs>
</svg>
