<svg width="28" height="34" viewBox="0 0 28 34" fill="none" xmlns="http://www.w3.org/2000/svg">
<g clip-path="url(#clip0_168_448)">
<path d="M13.9998 8.35841C15.3532 8.35841 16.4498 9.69008 16.4498 11.3334C16.4498 12.9767 15.3532 14.3084 13.9998 14.3084C12.6465 14.3084 11.5498 12.9767 11.5498 11.3334C11.5498 9.69008 12.6465 8.35841 13.9998 8.35841ZM13.9998 21.1084C17.4648 21.1084 21.1165 23.1767 21.1165 24.0834V25.6417H6.88317V24.0834C6.88317 23.1767 10.5348 21.1084 13.9998 21.1084ZM13.9998 5.66675C11.4215 5.66675 9.33317 8.20258 9.33317 11.3334C9.33317 14.4642 11.4215 17.0001 13.9998 17.0001C16.5782 17.0001 18.6665 14.4642 18.6665 11.3334C18.6665 8.20258 16.5782 5.66675 13.9998 5.66675ZM13.9998 18.4167C10.8848 18.4167 4.6665 20.3151 4.6665 24.0834V28.3334H23.3332V24.0834C23.3332 20.3151 17.1148 18.4167 13.9998 18.4167Z" fill="#434141"/>
</g>
<defs>
<clipPath id="clip0_168_448">
<rect width="28" height="34" fill="white"/>
</clipPath>
</defs>
</svg>
