<svg width="28" height="34" viewBox="0 0 28 34" fill="none" xmlns="http://www.w3.org/2000/svg">
<g clip-path="url(#clip0_230_1042)">
<path d="M20.9998 8.49992H18.6665C18.6665 5.36909 16.5782 2.83325 13.9998 2.83325C11.4215 2.83325 9.33317 5.36909 9.33317 8.49992H6.99984C5.7165 8.49992 4.6665 9.77492 4.6665 11.3333V28.3333C4.6665 29.8916 5.7165 31.1666 6.99984 31.1666H20.9998C22.2832 31.1666 23.3332 29.8916 23.3332 28.3333V11.3333C23.3332 9.77492 22.2832 8.49992 20.9998 8.49992ZM13.9998 5.66659C15.2832 5.66659 16.3332 6.94159 16.3332 8.49992H11.6665C11.6665 6.94159 12.7165 5.66659 13.9998 5.66659ZM20.9998 28.3333H6.99984V11.3333H9.33317V14.1666C9.33317 14.9458 9.85817 15.5833 10.4998 15.5833C11.1415 15.5833 11.6665 14.9458 11.6665 14.1666V11.3333H16.3332V14.1666C16.3332 14.9458 16.8582 15.5833 17.4998 15.5833C18.1415 15.5833 18.6665 14.9458 18.6665 14.1666V11.3333H20.9998V28.3333Z" fill="#434343"/>
</g>
<defs>
<clipPath id="clip0_230_1042">
<rect width="28" height="34" fill="white"/>
</clipPath>
</defs>
</svg>
