<svg width="18" height="18" viewBox="0 0 18 18" fill="none" xmlns="http://www.w3.org/2000/svg">
<path d="M8.96783 4.71245C6.63845 4.71245 4.75957 6.59133 4.75957 8.92071C4.75957 11.2501 6.63845 13.129 8.96783 13.129C11.2972 13.129 13.1761 11.2501 13.1761 8.92071C13.1761 6.59133 11.2972 4.71245 8.96783 4.71245ZM8.96783 11.6566C7.46253 11.6566 6.23191 10.4297 6.23191 8.92071C6.23191 7.41174 7.45886 6.18479 8.96783 6.18479C10.4768 6.18479 11.7038 7.41174 11.7038 8.92071C11.7038 10.4297 10.4731 11.6566 8.96783 11.6566V11.6566ZM14.3298 4.54031C14.3298 5.08603 13.8903 5.52187 13.3482 5.52187C12.8025 5.52187 12.3667 5.08237 12.3667 4.54031C12.3667 3.99825 12.8062 3.55875 13.3482 3.55875C13.8903 3.55875 14.3298 3.99825 14.3298 4.54031ZM17.117 5.53652C17.0547 4.22167 16.7544 3.05698 15.7911 2.09739C14.8316 1.13781 13.6669 0.837478 12.352 0.771552C10.9969 0.694639 6.93512 0.694639 5.57998 0.771552C4.26879 0.833815 3.1041 1.13414 2.14085 2.09373C1.1776 3.05332 0.880935 4.21801 0.815009 5.53286C0.738096 6.888 0.738096 10.9498 0.815009 12.3049C0.877273 13.6198 1.1776 14.7844 2.14085 15.744C3.1041 16.7036 4.26513 17.0039 5.57998 17.0699C6.93512 17.1468 10.9969 17.1468 12.352 17.0699C13.6669 17.0076 14.8316 16.7073 15.7911 15.744C16.7507 14.7844 17.0511 13.6198 17.117 12.3049C17.1939 10.9498 17.1939 6.89166 17.117 5.53652V5.53652ZM15.3663 13.7589C15.0806 14.4768 14.5276 15.0298 13.8061 15.3192C12.7256 15.7477 10.1618 15.6488 8.96783 15.6488C7.77384 15.6488 5.2064 15.744 4.12961 15.3192C3.41175 15.0335 2.85871 14.4805 2.56937 13.7589C2.14085 12.6785 2.23974 10.1147 2.23974 8.92071C2.23974 7.72672 2.14451 5.15928 2.56937 4.08249C2.85505 3.36463 3.40809 2.81159 4.12961 2.52225C5.21006 2.09373 7.77384 2.19262 8.96783 2.19262C10.1618 2.19262 12.7293 2.09739 13.8061 2.52225C14.5239 2.80793 15.077 3.36097 15.3663 4.08249C15.7948 5.16294 15.6959 7.72672 15.6959 8.92071C15.6959 10.1147 15.7948 12.6821 15.3663 13.7589Z" fill="black"/>
</svg>
