<svg width="18" height="17" viewBox="0 0 18 17" fill="none" xmlns="http://www.w3.org/2000/svg">
<path d="M8.96783 4.3726C6.63845 4.3726 4.75957 6.25149 4.75957 8.58087C4.75957 10.9102 6.63845 12.7891 8.96783 12.7891C11.2972 12.7891 13.1761 10.9102 13.1761 8.58087C13.1761 6.25149 11.2972 4.3726 8.96783 4.3726ZM8.96783 11.3168C7.46253 11.3168 6.23191 10.0898 6.23191 8.58087C6.23191 7.0719 7.45886 5.84495 8.96783 5.84495C10.4768 5.84495 11.7038 7.0719 11.7038 8.58087C11.7038 10.0898 10.4731 11.3168 8.96783 11.3168V11.3168ZM14.3298 4.20047C14.3298 4.74618 13.8903 5.18203 13.3482 5.18203C12.8025 5.18203 12.3667 4.74252 12.3667 4.20047C12.3667 3.65841 12.8062 3.2189 13.3482 3.2189C13.8903 3.2189 14.3298 3.65841 14.3298 4.20047ZM17.117 5.19668C17.0547 3.88182 16.7544 2.71714 15.7911 1.75755C14.8316 0.797963 13.6669 0.497634 12.352 0.431708C10.9969 0.354795 6.93512 0.354795 5.57998 0.431708C4.26879 0.493972 3.1041 0.7943 2.14085 1.75389C1.1776 2.71347 0.880935 3.87816 0.815009 5.19301C0.738096 6.54816 0.738096 10.6099 0.815009 11.9651C0.877273 13.2799 1.1776 14.4446 2.14085 15.4042C3.1041 16.3638 4.26513 16.6641 5.57998 16.73C6.93512 16.8069 10.9969 16.8069 12.352 16.73C13.6669 16.6678 14.8316 16.3674 15.7911 15.4042C16.7507 14.4446 17.0511 13.2799 17.117 11.9651C17.1939 10.6099 17.1939 6.55182 17.117 5.19668V5.19668ZM15.3663 13.4191C15.0806 14.1369 14.5276 14.69 13.8061 14.9793C12.7256 15.4078 10.1618 15.309 8.96783 15.309C7.77384 15.309 5.2064 15.4042 4.12961 14.9793C3.41175 14.6937 2.85871 14.1406 2.56937 13.4191C2.14085 12.3386 2.23974 9.77486 2.23974 8.58087C2.23974 7.38688 2.14451 4.81944 2.56937 3.74265C2.85505 3.02479 3.40809 2.47175 4.12961 2.1824C5.21006 1.75389 7.77384 1.85278 8.96783 1.85278C10.1618 1.85278 12.7293 1.75755 13.8061 2.1824C14.5239 2.46808 15.077 3.02113 15.3663 3.74265C15.7948 4.8231 15.6959 7.38688 15.6959 8.58087C15.6959 9.77486 15.7948 12.3423 15.3663 13.4191Z" fill="black"/>
</svg>
