<svg width="20" height="30" viewBox="0 0 20 30" fill="none" xmlns="http://www.w3.org/2000/svg">
<path d="M16.9998 6.49992H14.6665C14.6665 3.36909 12.5782 0.833252 9.99984 0.833252C7.4215 0.833252 5.33317 3.36909 5.33317 6.49992H2.99984C1.7165 6.49992 0.666504 7.77492 0.666504 9.33325V26.3333C0.666504 27.8916 1.7165 29.1666 2.99984 29.1666H16.9998C18.2832 29.1666 19.3332 27.8916 19.3332 26.3333V9.33325C19.3332 7.77492 18.2832 6.49992 16.9998 6.49992ZM7.6665 12.1666C7.6665 12.9458 7.1415 13.5833 6.49984 13.5833C5.85817 13.5833 5.33317 12.9458 5.33317 12.1666V9.33325H7.6665V12.1666ZM9.99984 3.66659C11.2832 3.66659 12.3332 4.94159 12.3332 6.49992H7.6665C7.6665 4.94159 8.7165 3.66659 9.99984 3.66659ZM14.6665 12.1666C14.6665 12.9458 14.1415 13.5833 13.4998 13.5833C12.8582 13.5833 12.3332 12.9458 12.3332 12.1666V9.33325H14.6665V12.1666Z" fill="#21DE21"/>
</svg>
