<svg width="20" height="30" viewBox="0 0 20 30" fill="none" xmlns="http://www.w3.org/2000/svg">
<path d="M17.0001 6.50016H14.6667C14.6667 3.36933 12.5784 0.833496 10.0001 0.833496C7.42175 0.833496 5.33341 3.36933 5.33341 6.50016H3.00008C1.71675 6.50016 0.666748 7.77516 0.666748 9.3335V26.3335C0.666748 27.8918 1.71675 29.1668 3.00008 29.1668H17.0001C18.2834 29.1668 19.3334 27.8918 19.3334 26.3335V9.3335C19.3334 7.77516 18.2834 6.50016 17.0001 6.50016ZM7.66675 12.1668C7.66675 12.946 7.14175 13.5835 6.50008 13.5835C5.85841 13.5835 5.33341 12.946 5.33341 12.1668V9.3335H7.66675V12.1668ZM10.0001 3.66683C11.2834 3.66683 12.3334 4.94183 12.3334 6.50016H7.66675C7.66675 4.94183 8.71675 3.66683 10.0001 3.66683ZM14.6667 12.1668C14.6667 12.946 14.1417 13.5835 13.5001 13.5835C12.8584 13.5835 12.3334 12.946 12.3334 12.1668V9.3335H14.6667V12.1668Z" fill="#21DE21"/>
</svg>
