<svg width="20" height="30" viewBox="0 0 20 30" fill="none" xmlns="http://www.w3.org/2000/svg">
<path d="M16.9998 6.50016H14.6665C14.6665 3.36933 12.5782 0.833496 9.99984 0.833496C7.4215 0.833496 5.33317 3.36933 5.33317 6.50016H2.99984C1.7165 6.50016 0.666504 7.77516 0.666504 9.3335V26.3335C0.666504 27.8918 1.7165 29.1668 2.99984 29.1668H16.9998C18.2832 29.1668 19.3332 27.8918 19.3332 26.3335V9.3335C19.3332 7.77516 18.2832 6.50016 16.9998 6.50016ZM7.6665 12.1668C7.6665 12.946 7.1415 13.5835 6.49984 13.5835C5.85817 13.5835 5.33317 12.946 5.33317 12.1668V9.3335H7.6665V12.1668ZM9.99984 3.66683C11.2832 3.66683 12.3332 4.94183 12.3332 6.50016H7.6665C7.6665 4.94183 8.7165 3.66683 9.99984 3.66683ZM14.6665 12.1668C14.6665 12.946 14.1415 13.5835 13.4998 13.5835C12.8582 13.5835 12.3332 12.946 12.3332 12.1668V9.3335H14.6665V12.1668Z" fill="#21DE21"/>
</svg>
