<svg width="19" height="16" viewBox="0 0 19 16" fill="none" xmlns="http://www.w3.org/2000/svg">
<path d="M16.8378 3.91966C16.8497 4.08624 16.8497 4.25284 16.8497 4.41942C16.8497 9.5001 12.9827 15.3542 5.9149 15.3542C3.73744 15.3542 1.71469 14.7236 0.0131836 13.629C0.322559 13.6646 0.619994 13.6765 0.941272 13.6765C2.73793 13.6765 4.39186 13.0697 5.71261 12.0345C4.02301 11.9988 2.60707 10.8923 2.11922 9.36923C2.35721 9.40491 2.59517 9.42871 2.84506 9.42871C3.19011 9.42871 3.5352 9.3811 3.85644 9.29785C2.09545 8.94086 0.774663 7.39406 0.774663 5.52598V5.47841C1.28628 5.76397 1.88126 5.94245 2.51184 5.96622C1.47666 5.27609 0.79847 4.09814 0.79847 2.76549C0.79847 2.05158 0.988812 1.39716 1.32199 0.826023C3.21388 3.15815 6.05766 4.68114 9.24646 4.84775C9.18698 4.56218 9.15127 4.26475 9.15127 3.96728C9.15127 1.8493 10.8647 0.124023 12.9945 0.124023C14.1011 0.124023 15.1006 0.588068 15.8026 1.33768C16.6712 1.17111 17.5041 0.84983 18.2418 0.409592C17.9562 1.30201 17.3494 2.05162 16.5522 2.52753C17.3256 2.44428 18.0752 2.23006 18.7653 1.93262C18.2419 2.6941 17.5874 3.3723 16.8378 3.91966V3.91966Z" fill="black"/>
</svg>
