<svg width="18" height="17" viewBox="0 0 18 17" fill="none" xmlns="http://www.w3.org/2000/svg">
<path d="M8.96783 4.02007C6.63845 4.02007 4.75957 5.89895 4.75957 8.22833C4.75957 10.5577 6.63845 12.4366 8.96783 12.4366C11.2972 12.4366 13.1761 10.5577 13.1761 8.22833C13.1761 5.89895 11.2972 4.02007 8.96783 4.02007ZM8.96783 10.9642C7.46253 10.9642 6.23191 9.7373 6.23191 8.22833C6.23191 6.71936 7.45886 5.49241 8.96783 5.49241C10.4768 5.49241 11.7038 6.71936 11.7038 8.22833C11.7038 9.7373 10.4731 10.9642 8.96783 10.9642V10.9642ZM14.3298 3.84793C14.3298 4.39365 13.8903 4.82949 13.3482 4.82949C12.8025 4.82949 12.3667 4.38998 12.3667 3.84793C12.3667 3.30587 12.8062 2.86636 13.3482 2.86636C13.8903 2.86636 14.3298 3.30587 14.3298 3.84793ZM17.117 4.84414C17.0547 3.52929 16.7544 2.3646 15.7911 1.40501C14.8316 0.445424 13.6669 0.145095 12.352 0.0791694C10.9969 0.00225602 6.93512 0.00225602 5.57998 0.0791694C4.26879 0.141433 3.1041 0.441761 2.14085 1.40135C1.1776 2.36093 0.880935 3.52562 0.815009 4.84048C0.738096 6.19562 0.738096 10.2574 0.815009 11.6125C0.877273 12.9274 1.1776 14.0921 2.14085 15.0516C3.1041 16.0112 4.26513 16.3116 5.57998 16.3775C6.93512 16.4544 10.9969 16.4544 12.352 16.3775C13.6669 16.3152 14.8316 16.0149 15.7911 15.0516C16.7507 14.0921 17.0511 12.9274 17.117 11.6125C17.1939 10.2574 17.1939 6.19928 17.117 4.84414V4.84414ZM15.3663 13.0665C15.0806 13.7844 14.5276 14.3375 13.8061 14.6268C12.7256 15.0553 10.1618 14.9564 8.96783 14.9564C7.77384 14.9564 5.2064 15.0516 4.12961 14.6268C3.41175 14.3411 2.85871 13.7881 2.56937 13.0665C2.14085 11.9861 2.23974 9.42232 2.23974 8.22833C2.23974 7.03434 2.14451 4.4669 2.56937 3.39011C2.85505 2.67225 3.40809 2.11921 4.12961 1.82987C5.21006 1.40135 7.77384 1.50024 8.96783 1.50024C10.1618 1.50024 12.7293 1.40501 13.8061 1.82987C14.5239 2.11554 15.077 2.66859 15.3663 3.39011C15.7948 4.47056 15.6959 7.03434 15.6959 8.22833C15.6959 9.42232 15.7948 11.9898 15.3663 13.0665Z" fill="black"/>
</svg>
