<svg width="20" height="30" viewBox="0 0 20 30" fill="none" xmlns="http://www.w3.org/2000/svg">
<path d="M17 6.50016H14.6666C14.6666 3.36933 12.5783 0.833496 9.99996 0.833496C7.42163 0.833496 5.33329 3.36933 5.33329 6.50016H2.99996C1.71663 6.50016 0.666626 7.77516 0.666626 9.3335V26.3335C0.666626 27.8918 1.71663 29.1668 2.99996 29.1668H17C18.2833 29.1668 19.3333 27.8918 19.3333 26.3335V9.3335C19.3333 7.77516 18.2833 6.50016 17 6.50016ZM7.66663 12.1668C7.66663 12.946 7.14163 13.5835 6.49996 13.5835C5.85829 13.5835 5.33329 12.946 5.33329 12.1668V9.3335H7.66663V12.1668ZM9.99996 3.66683C11.2833 3.66683 12.3333 4.94183 12.3333 6.50016H7.66663C7.66663 4.94183 8.71663 3.66683 9.99996 3.66683ZM14.6666 12.1668C14.6666 12.946 14.1416 13.5835 13.5 13.5835C12.8583 13.5835 12.3333 12.946 12.3333 12.1668V9.3335H14.6666V12.1668Z" fill="#21DE21"/>
</svg>
