<svg width="19" height="17" viewBox="0 0 19 17" fill="none" xmlns="http://www.w3.org/2000/svg">
<path d="M16.8378 4.56712C16.8497 4.7337 16.8497 4.90031 16.8497 5.06688C16.8497 10.1476 12.9827 16.0017 5.9149 16.0017C3.73744 16.0017 1.71469 15.371 0.0131836 14.2764C0.322559 14.3121 0.619994 14.324 0.941272 14.324C2.73793 14.324 4.39186 13.7172 5.71261 12.682C4.02301 12.6463 2.60707 11.5397 2.11922 10.0167C2.35721 10.0524 2.59517 10.0762 2.84506 10.0762C3.19011 10.0762 3.5352 10.0286 3.85644 9.94531C2.09545 9.58832 0.774663 8.04152 0.774663 6.17344V6.12587C1.28628 6.41143 1.88126 6.58991 2.51184 6.61368C1.47666 5.92355 0.79847 4.7456 0.79847 3.41295C0.79847 2.69904 0.988812 2.04462 1.32199 1.47348C3.21388 3.80561 6.05766 5.3286 9.24646 5.49521C9.18698 5.20964 9.15127 4.91221 9.15127 4.61474C9.15127 2.49676 10.8647 0.771484 12.9945 0.771484C14.1011 0.771484 15.1006 1.23553 15.8026 1.98514C16.6712 1.81857 17.5041 1.49729 18.2418 1.05705C17.9562 1.94947 17.3494 2.69908 16.5522 3.17499C17.3256 3.09174 18.0752 2.87752 18.7653 2.58008C18.2419 3.34156 17.5874 4.01976 16.8378 4.56712V4.56712Z" fill="black"/>
</svg>
