<svg width="18" height="17" viewBox="0 0 18 17" fill="none" xmlns="http://www.w3.org/2000/svg">
<path d="M8.96783 4.55669C6.63845 4.55669 4.75957 6.43557 4.75957 8.76495C4.75957 11.0943 6.63845 12.9732 8.96783 12.9732C11.2972 12.9732 13.1761 11.0943 13.1761 8.76495C13.1761 6.43557 11.2972 4.55669 8.96783 4.55669ZM8.96783 11.5009C7.46253 11.5009 6.23191 10.2739 6.23191 8.76495C6.23191 7.25598 7.45886 6.02903 8.96783 6.02903C10.4768 6.02903 11.7038 7.25598 11.7038 8.76495C11.7038 10.2739 10.4731 11.5009 8.96783 11.5009ZM14.3298 4.38455C14.3298 4.93027 13.8903 5.36611 13.3482 5.36611C12.8025 5.36611 12.3667 4.9266 12.3667 4.38455C12.3667 3.84249 12.8062 3.40299 13.3482 3.40299C13.8903 3.40299 14.3298 3.84249 14.3298 4.38455ZM17.117 5.38076C17.0547 4.06591 16.7544 2.90122 15.7911 1.94163C14.8316 0.982045 13.6669 0.681716 12.352 0.615791C10.9969 0.538877 6.93512 0.538877 5.57998 0.615791C4.26879 0.678054 3.1041 0.978382 2.14085 1.93797C1.1776 2.89756 0.880935 4.06224 0.815009 5.3771C0.738096 6.73224 0.738096 10.794 0.815009 12.1491C0.877273 13.464 1.1776 14.6287 2.14085 15.5883C3.1041 16.5479 4.26513 16.8482 5.57998 16.9141C6.93512 16.991 10.9969 16.991 12.352 16.9141C13.6669 16.8518 14.8316 16.5515 15.7911 15.5883C16.7507 14.6287 17.0511 13.464 17.117 12.1491C17.1939 10.794 17.1939 6.7359 17.117 5.38076ZM15.3663 13.6032C15.0806 14.321 14.5276 14.8741 13.8061 15.1634C12.7256 15.5919 10.1618 15.493 8.96783 15.493C7.77384 15.493 5.2064 15.5883 4.12961 15.1634C3.41175 14.8777 2.85871 14.3247 2.56937 13.6032C2.14085 12.5227 2.23974 9.95894 2.23974 8.76495C2.23974 7.57096 2.14451 5.00352 2.56937 3.92673C2.85505 3.20887 3.40809 2.65583 4.12961 2.36649C5.21006 1.93797 7.77384 2.03686 8.96783 2.03686C10.1618 2.03686 12.7293 1.94163 13.8061 2.36649C14.5239 2.65216 15.077 3.20521 15.3663 3.92673C15.7948 5.00718 15.6959 7.57096 15.6959 8.76495C15.6959 9.95894 15.7948 12.5264 15.3663 13.6032Z" fill="black"/>
</svg>
