<svg width="19" height="16" viewBox="0 0 19 16" fill="none" xmlns="http://www.w3.org/2000/svg">
<path d="M16.8378 4.44359C16.8497 4.61016 16.8497 4.77677 16.8497 4.94334C16.8497 10.024 12.9827 15.8782 5.9149 15.8782C3.73744 15.8782 1.71469 15.2475 0.0131836 14.1529C0.322559 14.1886 0.619994 14.2005 0.941272 14.2005C2.73793 14.2005 4.39186 13.5936 5.71261 12.5585C4.02301 12.5228 2.60707 11.4162 2.11922 9.89316C2.35721 9.92883 2.59517 9.95264 2.84506 9.95264C3.19011 9.95264 3.5352 9.90503 3.85644 9.82178C2.09545 9.46479 0.774663 7.91799 0.774663 6.04991V6.00233C1.28628 6.2879 1.88126 6.46638 2.51184 6.49015C1.47666 5.80001 0.79847 4.62207 0.79847 3.28941C0.79847 2.57551 0.988812 1.92109 1.32199 1.34995C3.21388 3.68207 6.05766 5.20507 9.24646 5.37168C9.18698 5.08611 9.15127 4.78867 9.15127 4.4912C9.15127 2.37323 10.8647 0.647949 12.9945 0.647949C14.1011 0.647949 15.1006 1.11199 15.8026 1.86161C16.6712 1.69503 17.5041 1.37376 18.2418 0.933518C17.9562 1.82593 17.3494 2.57555 16.5522 3.05146C17.3256 2.96821 18.0752 2.75398 18.7653 2.45655C18.2419 3.21803 17.5874 3.89622 16.8378 4.44359Z" fill="black"/>
</svg>
