<svg width="19" height="16" viewBox="0 0 19 16" fill="none" xmlns="http://www.w3.org/2000/svg">
<path d="M16.8378 4.10375C16.8497 4.27032 16.8497 4.43693 16.8497 4.6035C16.8497 9.68418 12.9827 15.5383 5.9149 15.5383C3.73744 15.5383 1.71469 14.9077 0.0131836 13.813C0.322559 13.8487 0.619994 13.8606 0.941272 13.8606C2.73793 13.8606 4.39186 13.2538 5.71261 12.2186C4.02301 12.1829 2.60707 11.0763 2.11922 9.55332C2.35721 9.58899 2.59517 9.6128 2.84506 9.6128C3.19011 9.6128 3.5352 9.56518 3.85644 9.48193C2.09545 9.12495 0.774663 7.57814 0.774663 5.71006V5.66249C1.28628 5.94806 1.88126 6.12653 2.51184 6.1503C1.47666 5.46017 0.79847 4.28222 0.79847 2.94957C0.79847 2.23567 0.988812 1.58124 1.32199 1.01011C3.21388 3.34223 6.05766 4.86522 9.24646 5.03183C9.18698 4.74627 9.15127 4.44883 9.15127 4.15136C9.15127 2.03338 10.8647 0.308105 12.9945 0.308105C14.1011 0.308105 15.1006 0.77215 15.8026 1.52176C16.6712 1.35519 17.5041 1.03391 18.2418 0.593674C17.9562 1.48609 17.3494 2.2357 16.5522 2.71161C17.3256 2.62836 18.0752 2.41414 18.7653 2.11671C18.2419 2.87819 17.5874 3.55638 16.8378 4.10375Z" fill="black"/>
</svg>
