<svg width="18" height="18" viewBox="0 0 18 18" fill="none" xmlns="http://www.w3.org/2000/svg">
<path d="M8.96783 4.89653C6.63845 4.89653 4.75957 6.77542 4.75957 9.10479C4.75957 11.4342 6.63845 13.3131 8.96783 13.3131C11.2972 13.3131 13.1761 11.4342 13.1761 9.10479C13.1761 6.77542 11.2972 4.89653 8.96783 4.89653ZM8.96783 11.8407C7.46253 11.8407 6.23191 10.6138 6.23191 9.10479C6.23191 7.59583 7.45886 6.36887 8.96783 6.36887C10.4768 6.36887 11.7038 7.59583 11.7038 9.10479C11.7038 10.6138 10.4731 11.8407 8.96783 11.8407ZM14.3298 4.72439C14.3298 5.27011 13.8903 5.70595 13.3482 5.70595C12.8025 5.70595 12.3667 5.26645 12.3667 4.72439C12.3667 4.18233 12.8062 3.74283 13.3482 3.74283C13.8903 3.74283 14.3298 4.18233 14.3298 4.72439ZM17.117 5.7206C17.0547 4.40575 16.7544 3.24106 15.7911 2.28147C14.8316 1.32189 13.6669 1.02156 12.352 0.955634C10.9969 0.878721 6.93512 0.878721 5.57998 0.955634C4.26879 1.0179 3.1041 1.31823 2.14085 2.27781C1.1776 3.2374 0.880935 4.40209 0.815009 5.71694C0.738096 7.07208 0.738096 11.1338 0.815009 12.489C0.877273 13.8038 1.1776 14.9685 2.14085 15.9281C3.1041 16.8877 4.26513 17.188 5.57998 17.254C6.93512 17.3309 10.9969 17.3309 12.352 17.254C13.6669 17.1917 14.8316 16.8914 15.7911 15.9281C16.7507 14.9685 17.0511 13.8038 17.117 12.489C17.1939 11.1338 17.1939 7.07574 17.117 5.7206ZM15.3663 13.943C15.0806 14.6609 14.5276 15.2139 13.8061 15.5033C12.7256 15.9318 10.1618 15.8329 8.96783 15.8329C7.77384 15.8329 5.2064 15.9281 4.12961 15.5033C3.41175 15.2176 2.85871 14.6645 2.56937 13.943C2.14085 12.8626 2.23974 10.2988 2.23974 9.10479C2.23974 7.9108 2.14451 5.34336 2.56937 4.26657C2.85505 3.54871 3.40809 2.99567 4.12961 2.70633C5.21006 2.27781 7.77384 2.3767 8.96783 2.3767C10.1618 2.3767 12.7293 2.28147 13.8061 2.70633C14.5239 2.99201 15.077 3.54505 15.3663 4.26657C15.7948 5.34702 15.6959 7.9108 15.6959 9.10479C15.6959 10.2988 15.7948 12.8662 15.3663 13.943Z" fill="black"/>
</svg>
