<svg width="19" height="16" viewBox="0 0 19 16" fill="none" xmlns="http://www.w3.org/2000/svg">
<path d="M16.8378 4.25951C16.8497 4.42608 16.8497 4.59269 16.8497 4.75926C16.8497 9.83994 12.9827 15.6941 5.9149 15.6941C3.73744 15.6941 1.71469 15.0634 0.0131836 13.9688C0.322559 14.0045 0.619994 14.0164 0.941272 14.0164C2.73793 14.0164 4.39186 13.4096 5.71261 12.3744C4.02301 12.3387 2.60707 11.2321 2.11922 9.70908C2.35721 9.74475 2.59517 9.76856 2.84506 9.76856C3.19011 9.76856 3.5352 9.72095 3.85644 9.6377C2.09545 9.28071 0.774663 7.73391 0.774663 5.86583V5.81825C1.28628 6.10382 1.88126 6.28229 2.51184 6.30606C1.47666 5.61593 0.79847 4.43798 0.79847 3.10533C0.79847 2.39143 0.988812 1.737 1.32199 1.16587C3.21388 3.49799 6.05766 5.02099 9.24646 5.1876C9.18698 4.90203 9.15127 4.60459 9.15127 4.30712C9.15127 2.18915 10.8647 0.463867 12.9945 0.463867C14.1011 0.463867 15.1006 0.927912 15.8026 1.67752C16.6712 1.51095 17.5041 1.18967 18.2418 0.749436C17.9562 1.64185 17.3494 2.39146 16.5522 2.86737C17.3256 2.78413 18.0752 2.5699 18.7653 2.27247C18.2419 3.03395 17.5874 3.71214 16.8378 4.25951V4.25951Z" fill="black"/>
</svg>
